<svg width="1624" height="600" viewBox="0 0 1624 600" xmlns="http://www.w3.org/2000/svg" aria-label="connected-plated-pad PCB: source Circuit JSON on left, generated tscircuit render on right" role="img">
  <g transform="translate(0, 0)">
    <style></style><rect class="boundary" x="0" y="0" fill="#000" width="800" height="600" data-type="pcb_background" data-pcb-layer="global"/><rect class="pcb-boundary" fill="none" stroke="#fff" stroke-width="0.3" x="100" y="60" width="600" height="480" data-type="pcb_boundary" data-pcb-layer="global"/><path class="pcb-board" d="M 100 540 L 700 540 L 700 60 L 100 60 Z" fill="none" stroke="rgba(255, 255, 255, 0.5)" stroke-width="6" data-type="pcb_board" data-pcb-layer="board"/><path class="pcb-copper-pour pcb-copper-pour-brep" d="M 640 480 L 160 480 L 160 120 L 640 120 L 640 480 Z" fill="rgb(200, 52, 52)" fill-rule="evenodd" fill-opacity="0.5" data-type="pcb_copper_pour" data-pcb-layer="top"/><g data-type="pcb_plated_hole" data-pcb-layer="through"><rect class="pcb-hole-outer-pad" fill="rgb(200, 52, 52)" x="340" y="240" width="120" height="120" rx="30" ry="30" data-type="pcb_plated_hole" data-pcb-layer="top"/><circle class="pcb-hole-inner" fill="#FF26E2" cx="400" cy="300" r="30" data-type="pcb_plated_hole_drill" data-pcb-layer="drill"/></g>
  </g>
  <g transform="translate(824, 0)">
    <style></style><rect class="boundary" x="0" y="0" fill="#000" width="800" height="600" data-type="pcb_background" data-pcb-layer="global"/><rect class="pcb-boundary" fill="none" stroke="#fff" stroke-width="0.3" x="100" y="60" width="600" height="480" data-type="pcb_boundary" data-pcb-layer="global"/><path class="pcb-board" d="M 100 540 L 700 540 L 700 60 L 100 60 Z" fill="none" stroke="rgba(255, 255, 255, 0.5)" stroke-width="6" data-type="pcb_board" data-pcb-layer="board"/><path class="pcb-copper-pour pcb-copper-pour-brep" d="M 640 480 L 160 480 L 160 120 L 640 120 L 640 480 Z M 340 360 L 460 360 L 460 240 L 340 240 L 340 360 Z" fill="rgb(200, 52, 52)" fill-rule="evenodd" fill-opacity="0.5" data-type="pcb_copper_pour" data-pcb-layer="top"/><g data-type="pcb_plated_hole" data-pcb-layer="through"><rect class="pcb-hole-outer-pad" fill="rgb(200, 52, 52)" x="340" y="240" width="120" height="120" rx="30" ry="30" data-type="pcb_plated_hole" data-pcb-layer="top"/><circle class="pcb-hole-inner" fill="#FF26E2" cx="400" cy="300" r="30" data-type="pcb_plated_hole_drill" data-pcb-layer="drill"/></g>
  </g>
</svg>