<svg xmlns="http://www.w3.org/2000/svg" width="800" height="600" data-software-used-string="@tscircuit/core@0.0.1300"><style></style><rect class="boundary" x="0" y="0" fill="#000" width="800" height="600" data-type="pcb_background" data-pcb-layer="global"/><rect class="pcb-boundary" fill="none" stroke="#fff" stroke-width="0.3" x="127.27272727272725" y="27.272727272727252" width="545.4545454545455" height="545.4545454545455" data-type="pcb_boundary" data-pcb-layer="global"/><path class="pcb-board" d="M 127.27272727272725 572.7272727272727 L 672.7272727272727 572.7272727272727 L 672.7272727272727 27.272727272727252 L 127.27272727272725 27.272727272727252 Z" fill="none" stroke="rgba(255, 255, 255, 0.5)" stroke-width="2.7272727272727275" data-type="pcb_board" data-pcb-layer="board"/><path d="M-5.4831607920000005 -0.13945285800000007L-5.550730704 -0.21223160999999996 M-5.550730704 -0.21223160999999996L-5.617291284 -0.248096286 M-5.617291284 -0.248096286L-5.71814244 -0.248096286 M-5.71814244 -0.248096286L-5.785712352000001 -0.21223160999999996 M-5.785712352000001 -0.21223160999999996L-5.853280356000001 -0.13945285800000007 M-5.853280356000001 -0.13945285800000007L-5.8865616 -0.029757168000000056 M-5.8865616 -0.029757168000000056L-5.8865616 0.043024445999999994 M-5.8865616 0.043024445999999994L-5.853280356000001 0.15166596600000004 M-5.853280356000001 0.15166596600000004L-5.785712352000001 0.2244475800000001 M-5.785712352000001 0.2244475800000001L-5.71814244 0.26136260999999994 M-5.71814244 0.26136260999999994L-5.617291284 0.26136260999999994 M-5.617291284 0.26136260999999994L-5.550730704 0.2244475800000001 M-5.550730704 0.2244475800000001L-5.4831607920000005 0.15166596600000004 M-4.59143505 -0.248096286L-4.6601201880000005 -0.21223160999999996 M-4.6601201880000005 -0.21223160999999996L-4.728800556 -0.13945285800000007 M-4.728800556 -0.13945285800000007L-4.763422170000001 -0.029757168000000056 M-4.763422170000001 -0.029757168000000056L-4.763422170000001 0.043024445999999994 M-4.763422170000001 0.043024445999999994L-4.728800556 0.15166596600000004 M-4.728800556 0.15166596600000004L-4.6601201880000005 0.2244475800000001 M-4.6601201880000005 0.2244475800000001L-4.59143505 0.26136260999999994 M-4.59143505 0.26136260999999994L-4.488690204000001 0.26136260999999994 M-4.488690204000001 0.26136260999999994L-4.420004112000001 0.2244475800000001 M-4.420004112000001 0.2244475800000001L-4.351321836 0.15166596600000004 M-4.351321836 0.15166596600000004L-4.316700222000001 0.043024445999999994 M-4.316700222000001 0.043024445999999994L-4.316700222000001 -0.029757168000000056 M-4.316700222000001 -0.029757168000000056L-4.351321836 -0.13945285800000007 M-4.351321836 -0.13945285800000007L-4.420004112000001 -0.21223160999999996 M-4.420004112000001 -0.21223160999999996L-4.488690204000001 -0.248096286 M-4.488690204000001 -0.248096286L-4.59143505 -0.248096286 M-3.609073584000001 -0.248096286L-3.609073584000001 0.433348776 M-3.609073584000001 -0.15114889799999998L-3.5374453560000005 -0.21609340200000005 M-3.5374453560000005 -0.21609340200000005L-3.4668894240000006 -0.248096286 M-3.4668894240000006 -0.248096286L-3.3599832300000005 -0.248096286 M-3.3599832300000005 -0.248096286L-3.2883550020000007 -0.21609340200000005 M-3.2883550020000007 -0.21609340200000005L-3.2167296360000006 -0.15114889799999998 M-3.2167296360000006 -0.15114889799999998L-3.1814488080000007 -0.05326277400000001 M-3.1814488080000007 -0.05326277400000001L-3.1814488080000007 0.011682684000000054 M-3.1814488080000007 0.011682684000000054L-3.2167296360000006 0.10862816399999997 M-3.2167296360000006 0.10862816399999997L-3.2883550020000007 0.17357266800000004 M-3.2883550020000007 0.17357266800000004L-3.3599832300000005 0.20651333400000005 M-3.3599832300000005 0.20651333400000005L-3.4668894240000006 0.20651333400000005 M-3.4668894240000006 0.20651333400000005L-3.5374453560000005 0.17357266800000004 M-3.5374453560000005 0.17357266800000004L-3.609073584000001 0.10862816399999997 M-2.4642735840000007 -0.248096286L-2.4642735840000007 0.433348776 M-2.4642735840000007 -0.15114889799999998L-2.3926453560000005 -0.21609340200000005 M-2.3926453560000005 -0.21609340200000005L-2.3220894240000005 -0.248096286 M-2.3220894240000005 -0.248096286L-2.2151832300000005 -0.248096286 M-2.2151832300000005 -0.248096286L-2.1435550020000007 -0.21609340200000005 M-2.1435550020000007 -0.21609340200000005L-2.0719296360000006 -0.15114889799999998 M-2.0719296360000006 -0.15114889799999998L-2.0366488080000007 -0.05326277400000001 M-2.0366488080000007 -0.05326277400000001L-2.0366488080000007 0.011682684000000054 M-2.0366488080000007 0.011682684000000054L-2.0719296360000006 0.10862816399999997 M-2.0719296360000006 0.10862816399999997L-2.1435550020000007 0.17357266800000004 M-2.1435550020000007 0.17357266800000004L-2.2151832300000005 0.20651333400000005 M-2.2151832300000005 0.20651333400000005L-2.3220894240000005 0.20651333400000005 M-2.3220894240000005 0.20651333400000005L-2.3926453560000005 0.17357266800000004 M-2.3926453560000005 0.17357266800000004L-2.4642735840000007 0.10862816399999997 M-1.3360092660000005 -0.029757168000000056L-0.8753121720000004 -0.029757168000000056 M-0.8753121720000004 -0.102534966L-0.9133204860000005 -0.175315626 M-0.9133204860000005 -0.175315626L-0.9524793240000005 -0.21223160999999996 M-0.9524793240000005 -0.21223160999999996L-1.0284940440000006 -0.248096286 M-1.0284940440000006 -0.248096286L-1.1436685560000006 -0.248096286 M-1.1436685560000006 -0.248096286L-1.2208347540000006 -0.21223160999999996 M-1.2208347540000006 -0.21223160999999996L-1.2980009520000004 -0.13945285800000007 M-1.2980009520000004 -0.13945285800000007L-1.3360092660000005 -0.029757168000000056 M-1.3360092660000005 -0.029757168000000056L-1.3360092660000005 0.043024445999999994 M-1.3360092660000005 0.043024445999999994L-1.2980009520000004 0.15166596600000004 M-1.2980009520000004 0.15166596600000004L-1.2208347540000006 0.2244475800000001 M-1.2208347540000006 0.2244475800000001L-1.1436685560000006 0.26136260999999994 M-1.1436685560000006 0.26136260999999994L-1.0284940440000006 0.26136260999999994 M-1.0284940440000006 0.26136260999999994L-0.9524793240000005 0.2244475800000001 M-0.9524793240000005 0.2244475800000001L-0.8753121720000004 0.15166596600000004 M-0.14555941200000047 -0.248096286L-0.14555941200000047 0.248799384 M-0.14555941200000047 -0.035141544000000025L-0.09938390400000047 -0.14213264400000003 M-0.09938390400000047 -0.14213264400000003L-0.007034796000000454 -0.21311692200000004 M-0.007034796000000454 -0.21311692200000004L0.08531431199999956 -0.248096286 M0.08531431199999956 -0.248096286L0.22383701999999955 -0.248096286 M1.8183545279999995 -0.383649192L1.8183545279999995 0.12072774600000002 M1.8183545279999995 0.12072774600000002L1.8708159419999995 0.209234142 M1.8708159419999995 0.209234142L1.9757444939999995 0.239308992 M1.9757444939999995 0.239308992L2.0806711379999996 0.239308992 M1.6609664699999995 -0.175727754L2.0282078159999997 -0.175727754 M2.7852707339999996 -0.029757168000000056L3.2459678279999995 -0.029757168000000056 M3.2459678279999995 -0.102534966L3.2079595139999997 -0.175315626 M3.2079595139999997 -0.175315626L3.1688006759999996 -0.21223160999999996 M3.1688006759999996 -0.21223160999999996L3.0927859559999997 -0.248096286 M3.0927859559999997 -0.248096286L2.9776114439999994 -0.248096286 M2.9776114439999994 -0.248096286L2.9004452459999994 -0.21223160999999996 M2.9004452459999994 -0.21223160999999996L2.8232790479999994 -0.13945285800000007 M2.8232790479999994 -0.13945285800000007L2.7852707339999996 -0.029757168000000056 M2.7852707339999996 -0.029757168000000056L2.7852707339999996 0.043024445999999994 M2.7852707339999996 0.043024445999999994L2.8232790479999994 0.15166596600000004 M2.8232790479999994 0.15166596600000004L2.9004452459999994 0.2244475800000001 M2.9004452459999994 0.2244475800000001L2.9776114439999994 0.26136260999999994 M2.9776114439999994 0.26136260999999994L3.0927859559999997 0.26136260999999994 M3.0927859559999997 0.26136260999999994L3.1688006759999996 0.2244475800000001 M3.1688006759999996 0.2244475800000001L3.2459678279999995 0.15166596600000004 M3.9086429399999996 -0.23551875000000005L4.412195622 0.249679926 M4.412195622 -0.23551875000000005L3.9086429399999996 0.249679926 M5.252754527999999 -0.383649192L5.252754527999999 0.12072774600000002 M5.252754527999999 0.12072774600000002L5.305215941999999 0.209234142 M5.305215941999999 0.209234142L5.410144493999999 0.239308992 M5.410144493999999 0.239308992L5.515071138 0.239308992 M5.095366469999999 -0.175727754L5.462607815999999 -0.175727754" fill="none" stroke="rgb(200, 52, 52)" stroke-width="0.1431" stroke-linecap="round" stroke-linejoin="round" transform="matrix(27.272727272727273,0,0,27.272727272727273,365.0629490909091,362.0314363636364)" class="pcb-copper-text pcb-copper-top" data-type="pcb_copper_text" data-pcb-copper-text-id="pcb_copper_text_0"/><path d="M-5.4831607920000005 -0.13945285800000007L-5.550730704 -0.21223160999999996 M-5.550730704 -0.21223160999999996L-5.617291284 -0.248096286 M-5.617291284 -0.248096286L-5.71814244 -0.248096286 M-5.71814244 -0.248096286L-5.785712352000001 -0.21223160999999996 M-5.785712352000001 -0.21223160999999996L-5.853280356000001 -0.13945285800000007 M-5.853280356000001 -0.13945285800000007L-5.8865616 -0.029757168000000056 M-5.8865616 -0.029757168000000056L-5.8865616 0.043024445999999994 M-5.8865616 0.043024445999999994L-5.853280356000001 0.15166596600000004 M-5.853280356000001 0.15166596600000004L-5.785712352000001 0.2244475800000001 M-5.785712352000001 0.2244475800000001L-5.71814244 0.26136260999999994 M-5.71814244 0.26136260999999994L-5.617291284 0.26136260999999994 M-5.617291284 0.26136260999999994L-5.550730704 0.2244475800000001 M-5.550730704 0.2244475800000001L-5.4831607920000005 0.15166596600000004 M-4.59143505 -0.248096286L-4.6601201880000005 -0.21223160999999996 M-4.6601201880000005 -0.21223160999999996L-4.728800556 -0.13945285800000007 M-4.728800556 -0.13945285800000007L-4.763422170000001 -0.029757168000000056 M-4.763422170000001 -0.029757168000000056L-4.763422170000001 0.043024445999999994 M-4.763422170000001 0.043024445999999994L-4.728800556 0.15166596600000004 M-4.728800556 0.15166596600000004L-4.6601201880000005 0.2244475800000001 M-4.6601201880000005 0.2244475800000001L-4.59143505 0.26136260999999994 M-4.59143505 0.26136260999999994L-4.488690204000001 0.26136260999999994 M-4.488690204000001 0.26136260999999994L-4.420004112000001 0.2244475800000001 M-4.420004112000001 0.2244475800000001L-4.351321836 0.15166596600000004 M-4.351321836 0.15166596600000004L-4.316700222000001 0.043024445999999994 M-4.316700222000001 0.043024445999999994L-4.316700222000001 -0.029757168000000056 M-4.316700222000001 -0.029757168000000056L-4.351321836 -0.13945285800000007 M-4.351321836 -0.13945285800000007L-4.420004112000001 -0.21223160999999996 M-4.420004112000001 -0.21223160999999996L-4.488690204000001 -0.248096286 M-4.488690204000001 -0.248096286L-4.59143505 -0.248096286 M-3.609073584000001 -0.248096286L-3.609073584000001 0.433348776 M-3.609073584000001 -0.15114889799999998L-3.5374453560000005 -0.21609340200000005 M-3.5374453560000005 -0.21609340200000005L-3.4668894240000006 -0.248096286 M-3.4668894240000006 -0.248096286L-3.3599832300000005 -0.248096286 M-3.3599832300000005 -0.248096286L-3.2883550020000007 -0.21609340200000005 M-3.2883550020000007 -0.21609340200000005L-3.2167296360000006 -0.15114889799999998 M-3.2167296360000006 -0.15114889799999998L-3.1814488080000007 -0.05326277400000001 M-3.1814488080000007 -0.05326277400000001L-3.1814488080000007 0.011682684000000054 M-3.1814488080000007 0.011682684000000054L-3.2167296360000006 0.10862816399999997 M-3.2167296360000006 0.10862816399999997L-3.2883550020000007 0.17357266800000004 M-3.2883550020000007 0.17357266800000004L-3.3599832300000005 0.20651333400000005 M-3.3599832300000005 0.20651333400000005L-3.4668894240000006 0.20651333400000005 M-3.4668894240000006 0.20651333400000005L-3.5374453560000005 0.17357266800000004 M-3.5374453560000005 0.17357266800000004L-3.609073584000001 0.10862816399999997 M-2.4642735840000007 -0.248096286L-2.4642735840000007 0.433348776 M-2.4642735840000007 -0.15114889799999998L-2.3926453560000005 -0.21609340200000005 M-2.3926453560000005 -0.21609340200000005L-2.3220894240000005 -0.248096286 M-2.3220894240000005 -0.248096286L-2.2151832300000005 -0.248096286 M-2.2151832300000005 -0.248096286L-2.1435550020000007 -0.21609340200000005 M-2.1435550020000007 -0.21609340200000005L-2.0719296360000006 -0.15114889799999998 M-2.0719296360000006 -0.15114889799999998L-2.0366488080000007 -0.05326277400000001 M-2.0366488080000007 -0.05326277400000001L-2.0366488080000007 0.011682684000000054 M-2.0366488080000007 0.011682684000000054L-2.0719296360000006 0.10862816399999997 M-2.0719296360000006 0.10862816399999997L-2.1435550020000007 0.17357266800000004 M-2.1435550020000007 0.17357266800000004L-2.2151832300000005 0.20651333400000005 M-2.2151832300000005 0.20651333400000005L-2.3220894240000005 0.20651333400000005 M-2.3220894240000005 0.20651333400000005L-2.3926453560000005 0.17357266800000004 M-2.3926453560000005 0.17357266800000004L-2.4642735840000007 0.10862816399999997 M-1.3360092660000005 -0.029757168000000056L-0.8753121720000004 -0.029757168000000056 M-0.8753121720000004 -0.102534966L-0.9133204860000005 -0.175315626 M-0.9133204860000005 -0.175315626L-0.9524793240000005 -0.21223160999999996 M-0.9524793240000005 -0.21223160999999996L-1.0284940440000006 -0.248096286 M-1.0284940440000006 -0.248096286L-1.1436685560000006 -0.248096286 M-1.1436685560000006 -0.248096286L-1.2208347540000006 -0.21223160999999996 M-1.2208347540000006 -0.21223160999999996L-1.2980009520000004 -0.13945285800000007 M-1.2980009520000004 -0.13945285800000007L-1.3360092660000005 -0.029757168000000056 M-1.3360092660000005 -0.029757168000000056L-1.3360092660000005 0.043024445999999994 M-1.3360092660000005 0.043024445999999994L-1.2980009520000004 0.15166596600000004 M-1.2980009520000004 0.15166596600000004L-1.2208347540000006 0.2244475800000001 M-1.2208347540000006 0.2244475800000001L-1.1436685560000006 0.26136260999999994 M-1.1436685560000006 0.26136260999999994L-1.0284940440000006 0.26136260999999994 M-1.0284940440000006 0.26136260999999994L-0.9524793240000005 0.2244475800000001 M-0.9524793240000005 0.2244475800000001L-0.8753121720000004 0.15166596600000004 M-0.14555941200000047 -0.248096286L-0.14555941200000047 0.248799384 M-0.14555941200000047 -0.035141544000000025L-0.09938390400000047 -0.14213264400000003 M-0.09938390400000047 -0.14213264400000003L-0.007034796000000454 -0.21311692200000004 M-0.007034796000000454 -0.21311692200000004L0.08531431199999956 -0.248096286 M0.08531431199999956 -0.248096286L0.22383701999999955 -0.248096286 M1.8183545279999995 -0.383649192L1.8183545279999995 0.12072774600000002 M1.8183545279999995 0.12072774600000002L1.8708159419999995 0.209234142 M1.8708159419999995 0.209234142L1.9757444939999995 0.239308992 M1.9757444939999995 0.239308992L2.0806711379999996 0.239308992 M1.6609664699999995 -0.175727754L2.0282078159999997 -0.175727754 M2.7852707339999996 -0.029757168000000056L3.2459678279999995 -0.029757168000000056 M3.2459678279999995 -0.102534966L3.2079595139999997 -0.175315626 M3.2079595139999997 -0.175315626L3.1688006759999996 -0.21223160999999996 M3.1688006759999996 -0.21223160999999996L3.0927859559999997 -0.248096286 M3.0927859559999997 -0.248096286L2.9776114439999994 -0.248096286 M2.9776114439999994 -0.248096286L2.9004452459999994 -0.21223160999999996 M2.9004452459999994 -0.21223160999999996L2.8232790479999994 -0.13945285800000007 M2.8232790479999994 -0.13945285800000007L2.7852707339999996 -0.029757168000000056 M2.7852707339999996 -0.029757168000000056L2.7852707339999996 0.043024445999999994 M2.7852707339999996 0.043024445999999994L2.8232790479999994 0.15166596600000004 M2.8232790479999994 0.15166596600000004L2.9004452459999994 0.2244475800000001 M2.9004452459999994 0.2244475800000001L2.9776114439999994 0.26136260999999994 M2.9776114439999994 0.26136260999999994L3.0927859559999997 0.26136260999999994 M3.0927859559999997 0.26136260999999994L3.1688006759999996 0.2244475800000001 M3.1688006759999996 0.2244475800000001L3.2459678279999995 0.15166596600000004 M3.9086429399999996 -0.23551875000000005L4.412195622 0.249679926 M4.412195622 -0.23551875000000005L3.9086429399999996 0.249679926 M5.252754527999999 -0.383649192L5.252754527999999 0.12072774600000002 M5.252754527999999 0.12072774600000002L5.305215941999999 0.209234142 M5.305215941999999 0.209234142L5.410144493999999 0.239308992 M5.410144493999999 0.239308992L5.515071138 0.239308992 M5.095366469999999 -0.175727754L5.462607815999999 -0.175727754" fill="none" stroke="rgb(200, 52, 52)" stroke-width="0.1431" stroke-linecap="round" stroke-linejoin="round" transform="matrix(27.272727272727273,0,0,27.272727272727273,365.0629490909091,362.0314363636364)" class="pcb-copper-text pcb-copper-top" data-type="pcb_copper_text" data-pcb-copper-text-id="pcb_copper_text_1"/></svg>